<svg width="20" height="20" viewBox="0 0 20 20" fill="none" xmlns="http://www.w3.org/2000/svg">
<path fill-rule="evenodd" clip-rule="evenodd" d="M17.7044 8.70984C17.8936 8.52209 18 8.26656 18 8C18 7.73344 17.8936 7.47791 17.7044 7.29016L13.6732 3.29016C13.2812 2.90115 12.648 2.9036 12.259 3.29564C11.87 3.68767 11.8725 4.32084 12.2645 4.70984L14.5725 7H14.0022C14.0015 7 14.0007 7 14 7H7C4.23857 7 2 9.23857 2 12C2 14.7614 4.23857 17 7 17H7.58333C8.13562 17 8.58333 16.5523 8.58333 16C8.58333 15.4477 8.13562 15 7.58333 15H7C5.34314 15 4 13.6569 4 12C4 10.3431 5.34314 9 7 9H12.9729C12.9736 9 12.9744 9 12.9751 9H14.5725L12.2645 11.2902C11.8725 11.6792 11.87 12.3123 12.259 12.7044C12.648 13.0964 13.2812 13.0989 13.6732 12.7098L17.7044 8.70984Z" fill="black"/>
</svg>
