<svg width="20" height="20" viewBox="0 0 20 20" fill="none" xmlns="http://www.w3.org/2000/svg">
<path fill-rule="evenodd" clip-rule="evenodd" d="M2.29564 8.70984C2.10642 8.52209 2 8.26656 2 8C2 7.73344 2.10642 7.47791 2.29564 7.29016L6.32677 3.29016C6.71881 2.90115 7.35197 2.9036 7.74097 3.29564C8.12998 3.68767 8.12753 4.32083 7.73549 4.70984L5.42751 7H7.02491C7.02716 7 7.02942 7.00001 7.03167 7.00002H13C15.7614 7.00002 18 9.2386 18 12C18 14.7614 15.7614 17 13 17H12.4167C11.8644 17 11.4167 16.5523 11.4167 16C11.4167 15.4477 11.8644 15 12.4167 15H13C14.6569 15 16 13.6569 16 12C16 10.3432 14.6569 9.00002 13 9.00002H6C5.99774 9.00002 5.99549 9.00001 5.99323 9H5.42751L7.73549 11.2902C8.12753 11.6792 8.12998 12.3123 7.74097 12.7044C7.35197 13.0964 6.71881 13.0989 6.32677 12.7098L2.29564 8.70984Z" fill="black"/>
</svg>
