<svg width="20" height="20" viewBox="0 0 20 20" fill="none" xmlns="http://www.w3.org/2000/svg">
<path fill-rule="evenodd" clip-rule="evenodd" d="M9 14C6.23858 14 4 11.7614 4 9C4 6.23858 6.23858 4 9 4C11.7614 4 14 6.23858 14 9C14 11.7614 11.7614 14 9 14ZM2 9C2 12.866 5.13401 16 9 16C10.5723 16 12.0236 15.4816 13.1922 14.6064L16.2929 17.7071C16.6834 18.0976 17.3166 18.0976 17.7071 17.7071C18.0976 17.3166 18.0976 16.6834 17.7071 16.2929L14.6064 13.1922C15.4816 12.0236 16 10.5723 16 9C16 5.13401 12.866 2 9 2C5.13401 2 2 5.13401 2 9Z" fill="black"/>
<path d="M5 5H13V13H5V5Z" fill="white" fill-opacity="0.01"/>
<path d="M9.01002 6.66669L9.00391 11.3334" stroke="black" stroke-linecap="round" stroke-linejoin="round"/>
<path d="M6.66663 8.99998H11.3333" stroke="black" stroke-linecap="round" stroke-linejoin="round"/>
</svg>
